<?xml version="1.0" encoding="UTF-8"?>
<svg version="1.1" viewBox="0 0 120 120" xmlns="http://www.w3.org/2000/svg">
<g fill="none" stroke="#fff">
<path d="m82.7 45.69-35.941-4.9446s-4.797-0.4428-17.638 2.214c-12.841 2.6568-15.424 7.8967-15.424 7.8967s-1.476 1.4022-0.73801 5.6089c0.73801 4.2066 3.9852 8.1181 4.3542 11.218s0.73354 9.2251 0.73354 9.2251"/>
<path d="m17.682 72.111s-3.3948-3.6162-7.0849-3.1734-6.1993 1.845-6.1993 1.845c0.39049-5.0997 2.0952-10.9 7.5277-12.841 1.2546-0.369 1.3284-0.369 1.3284-0.369"/>
<path d="m4.2503 78.458 50.037-4.1328 0.2952 12.62-50.111-3.2472z"/>
<path d="m111.94 61.852-1.0658-4.7794h-2.9224l-1.8787 11.085-22.544 6.98s-4.5923-10.39-6.5753-14.774c-1.983-4.3835-6.7841-4.0704-12.211-2.4005s-6.3666 12.629-6.3666 12.629l-14.612 2.6092s2.0698-10.124 3.7485-14.403c1.6787-4.2792 1.8874-6.0535 3.2443-6.3666s10.854-1.983 12.733-1.983 14.507 1.7743 14.507 1.7743"/>
<path d="m47.011 72.575-0.32618 2.5619"/>
<path d="m111.65 51.205c-3.653-0.053373-10.98-0.031666-11.527 0.98371-0.73058 1.3568-0.83495 11.894-3.0267 12.575s-4.4879 1.8244-5.3229 0-1.6699-17.271-1.6699-17.271-2.2961 0.043698-3.0267-1.5437-4.3751-0.2575-4.3751-0.2575"/>
<path d="m46.76 40.746 1.2467-10.893 40.948-6.3666 11.55 3.7046"/>
<path d="m87.076 45.948 2.2961-3.6748 1.9538 2.9823-1.2232 2.2362"/>
<path d="m89.372 42.273 3.9661-3.653s4.0704-1.8091 2.9224-0.10437-5.5838 5.9491-5.5838 5.9491"/>
<path d="m92.762 42.158s5.481 0.95017 6.3159 0.53269c0.83495-0.41748 1.0437-6.2622 0-6.784-1.0437-0.52185-4.6094-0.10542-5.3444 0.89089-0.73508 0.99631-0.39591 1.8227-0.39591 1.8227"/>
<path d="m82.837 45.643c-0.23094 0.06417-0.47974-8.6e-5 -0.47974-8.6e-5"/>
<path d="m87.658 23.688 0.56607 20.422"/>
<path d="m89.865 23.779 0.10943 17.94"/>
<path d="m100.12 52.188-0.10437-25.153"/>
<path d="m67.976 37.269 9.2889 7.8898"/>
<path d="m52.32 37.269 6.1746 5.091"/>
<path d="m109.64 44.124-6.8005-1e-6 -0.31311-11.376 1.9491 0.34115"/>
<ellipse cx="71.393" cy="86.473" rx="10.076" ry="21.331" stroke-width="1.1245"/>
<path d="m109.97 63.992c-1.7323-3.77e-4 -3.1367 5.0881-3.1367 11.365 2e-3 2.1441 0.17122 4.2424 0.48829 6.0527l2.0593-5.1086 1.5896-5.8556 0.59007-4.0043c-0.56045-1.6677-0.86532-2.4476-1.5905-2.4494z"/>
<path d="m71.393 107.8-9.1058-1.4474c-7.6101-3.8115-10.27-34.344 0.6784-40.108l7.9547-1.0817"/>
<path d="m109.97 63.993-3.1993 0.03601"/>
<path d="m105.21 85.797c-3.0131-3.8556-2.8715-12.703-2.1069-16.72"/>
<path d="m5.6998 78.297c0.98177-1.1663 1.1799-2.3326 3.2359-3.4989l5.2881-0.6633c-3.2273 0.85073-3.3547 2.462-4.3541 3.8594"/>
<path d="m4.4471 83.115c-0.5458 5.432-0.4868 10.921 4.3122 16.657l5.7814 0.7413c-5.1279-1.2291-7.3413-9.1452-6.5009-16.49"/>
<path d="m14.383 100.49c4.3527-0.0369 6.4897-8.0011 6.8323-15.711"/>
<path d="m14.224 74.134c1.4006-0.19221 2.6722 0.15308 3.8227 1.0025"/>
<ellipse cx="72.593" cy="86.473" rx="6.1314" ry="17.414" stroke-width="1.153"/>
<path d="m110.43 67.23a1.3281 7.625 0 0 0-1.3281 7.625 1.3281 7.625 0 0 0 0.07031 2.4277l0.25-0.51758 1.459-5.9219 0.3711-1.9766a1.3281 7.625 0 0 0-0.82227-1.6367z"/>
<path d="m80.86 79.163 21.905-7.5297"/>
<path d="m54.582 86.945 1.0812-0.05648"/>
<path d="m23.873 72.266-0.62737-23.878" stroke-linecap="round" stroke-linejoin="round"/>
<path d="m25.449 47.833 0.37286 24.179" stroke-linecap="round" stroke-linejoin="round"/>
<path d="m28.133 71.627-0.49857-24.294" stroke-linecap="round" stroke-linejoin="round"/>
<path d="m30.652 69.25-0.76693-22.417" stroke-linecap="round" stroke-linejoin="round"/>
<path d="m32.26 46.333 0.66579 22.576" stroke-linecap="round" stroke-linejoin="round"/>
<path d="m35.251 70.56-0.74664-25.01" stroke-linecap="round" stroke-linejoin="round"/>
<path d="m37.556 70.215-0.78954-25.235" stroke-linecap="round" stroke-linejoin="round"/>
<ellipse cx="42.094" cy="51.354" rx="3.5576" ry="5.1928" stroke-linecap="round" stroke-linejoin="round"/>
<ellipse cx="17.931" cy="56.039" rx="2.8616" ry="4.1763" stroke-linecap="round" stroke-linejoin="round"/>
<ellipse cx="41.103" cy="63.59" rx="2.2812" ry="3.6719" stroke-linecap="round" stroke-linejoin="round"/>
<ellipse cx="19.385" cy="66.512" rx="1.875" ry="3.125" stroke-linecap="round" stroke-linejoin="round"/>
<path d="m20.616 76.965s-2.3423-2.5191-1.7015-5.016c0.64082-2.497 3.2041-3.0494 3.8228-0.22097 0.61872 2.8284-1.9445 5.237-1.9445 5.237z" stroke-linecap="round" stroke-linejoin="round"/>
<path d="m31.621 76.016s-2.3423-2.5191-1.7015-5.016c0.64082-2.497 3.2041-3.0494 3.8228-0.22097 0.61872 2.8284-1.9445 5.237-1.9445 5.237z" stroke-linecap="round" stroke-linejoin="round"/>
<path d="m4.1356 80.387c-2.3811-6.5325-3.5994-13.433-3.5994-20.387-2.6e-7 -32.841 26.59-59.464 59.39-59.464 32.8 1.11e-6 59.39 26.623 59.39 59.464v0c0 32.841-26.59 59.464-59.39 59.464-16.799 0-32.577-6.7948-43.838-19.276" stroke-linecap="round" stroke-linejoin="round" stroke-width="1.0723"/>
<path d="m8.0748 60.328a52 52 0 0 1-0.0010373-0.32844 52 52 0 0 1 52-52 52 52 0 0 1 52 52v0a52 52 0 0 1-52 52 52 52 0 0 1-39.948-18.711" stroke-linecap="round" stroke-linejoin="round" stroke-width="1.0723"/>
<path d="m10.159 74.579a52 52 0 0 1-1.2121-5.0882" stroke-linecap="round" stroke-linejoin="round" stroke-width="1.0723"/>
</g>
</svg>
